<svg viewBox="0 0 149 31" fill="none" xmlns="http://www.w3.org/2000/svg">
<path d="M11.4115 24.1822L11.4042 24.1748C11.4079 24.1785 11.4152 24.1785 11.4189 24.1822H11.4115ZM7.61879 21.1465V21.1428C7.61879 21.1465 7.62244 21.1502 7.62244 21.1502L7.61879 21.1465ZM12.1391 13.7603L16.9142 19.8761H21.9478V24.1674H15.533C10.5547 24.1674 6.50347 20.1198 6.50347 15.1415C6.50347 10.1633 10.5547 6.11571 15.533 6.11571H25.7148L20.9433 0H15.1415C6.79154 0 0 6.79154 0 15.1415C0 23.4916 6.79154 30.2831 15.1415 30.2831H28.3258L28.3184 13.7603H12.1391Z" fill="#1B1E23"/>
<path d="M142.5 0L135.69 14.2294L128.507 0.0406183L128.489 0H121.841L132.075 19.8834V30.2831H138.508L138.637 19.8834L149 0H142.5Z" fill="#1B1E23"/>
<path d="M103.794 23.233L96.0492 0.0517083L96.0344 0H89.1025L100.237 30.2351L100.256 30.2831H106.851L118.23 0.103417L118.267 0H111.641L103.794 23.233Z" fill="#1B1E23"/>
<path d="M85.9749 18L85.9565 17.952H72.1001L84.5974 0H76.7385L64.0603 18.6906L64.0308 18.7349L68.1374 23.9975H79.8887V30.2831H86.0635V18.24C86.0635 18.1957 86.0488 18.1625 86.0303 18.1218C86.0155 18.0923 85.9971 18.0554 85.9749 18Z" fill="#1B1E23"/>
<path d="M53.9256 9.84939C53.9256 12.0689 52.2859 13.8748 50.2695 13.8748H41.9269V5.82027H49.9704C51.8834 5.82027 53.9256 6.88017 53.9256 9.84939ZM60.1041 9.83462C60.1041 4.32088 56.0861 0 50.9527 0H35.6191V30.2831H41.9269V19.6692H47.6585L54.4464 30.2498L54.4685 30.2831H61.9839L54.0697 18.6204C57.8513 17.0435 60.1041 13.764 60.1041 9.83462Z" fill="#1B1E23"/>
</svg>
