<svg width="174" height="30" viewBox="0 0 174 30" fill="none" xmlns="http://www.w3.org/2000/svg">
<g clip-path="url(#clip0_3466_12312)">
<path d="M27.9772 11.2574C28.5788 10.7859 29.1203 10.2554 29.5415 9.60707C29.6618 9.43025 29.7822 9.25344 29.8423 9.01768C30.2635 8.19253 30.5041 7.24951 30.5041 6.30648C30.5041 4.59725 29.7822 3.00589 28.5788 1.88605C27.3755 0.766208 25.751 0.0589391 23.9461 0.0589391C22.1411 0.0589391 20.5166 0.766208 19.3734 1.88605C18.2905 2.88802 17.5685 4.30255 17.4481 5.83497C16.0041 5.71709 14.3797 5.71709 12.9958 5.83497C12.8755 4.30255 12.1535 2.88802 11.0705 1.82711C9.86722 0.707269 8.24274 0 6.49792 0C4.69295 0 3.06846 0.707269 1.86515 1.82711C0.721992 2.94695 0 4.53831 0 6.24754C0 8.01572 0.782158 9.60707 2.04564 10.7859C2.22614 10.9627 2.40664 11.1395 2.6473 11.2574C2.16598 11.8468 1.80498 12.4361 1.44398 13.0845C1.32365 13.3202 1.26349 13.4971 1.14315 13.6739C0.661826 14.8527 0.360996 16.1493 0.360996 17.5049C0.360996 20.7466 2.10581 23.7525 4.81328 25.8743C5.71577 26.5815 6.73859 27.1709 7.88174 27.7014C7.94191 27.7603 8.00207 27.7603 8.06224 27.8193C8.36307 27.8782 8.60373 28.055 8.8444 28.1729C8.96473 28.1729 9.08506 28.2318 9.20539 28.2318C9.26556 28.2318 9.26556 28.2318 9.32573 28.2908C9.38589 28.2908 9.44606 28.3497 9.44606 28.3497C9.50622 28.3497 9.56639 28.3497 9.56639 28.4086C10.3485 28.6444 11.251 28.8802 12.0934 28.998C13.1162 29.1159 14.1992 29.2338 15.222 29.2338C17.2075 29.2338 19.0726 28.9391 20.8174 28.3497C20.9979 28.2318 21.2386 28.1139 21.5394 28.1139C21.5996 28.1139 21.6597 28.055 21.7199 28.055C21.9004 27.9961 22.1411 27.9371 22.3216 27.8782C22.4419 27.8193 22.5622 27.7014 22.6826 27.6424C22.6826 27.6424 22.6826 27.6424 22.7427 27.6424C23.8257 27.1709 24.7884 26.5815 25.6909 25.8743C28.4585 23.6935 30.1432 20.7466 30.1432 17.5049C30.1432 15.5599 29.5415 13.7328 28.5187 12.1415C28.4585 11.8468 28.2178 11.5521 27.9772 11.2574ZM2.94813 14.4401C3.0083 14.2633 3.06846 14.0864 3.1888 13.9686C3.54979 13.1434 4.09129 12.3772 4.81328 11.7289L5.6556 10.7859C3.79046 10.3733 2.22614 8.8998 1.92531 7.01375C1.56432 4.47937 3.30913 2.23969 5.89627 1.88605C8.4834 1.53242 10.89 3.30059 11.3112 5.77603C11.4315 6.60118 11.3112 7.36739 11.0705 8.07466C13.2365 7.42633 17.4481 7.42633 19.6141 8.07466C19.3133 7.36739 19.2531 6.60118 19.3734 5.77603C19.7946 3.30059 22.2012 1.53242 24.7282 1.88605C27.3153 2.23969 29.0602 4.53831 28.6992 6.95481C28.3983 8.84086 26.8942 10.3143 25.0892 10.7269L25.9315 11.611C26.1722 11.8468 26.3527 12.0825 26.5332 12.3183C26.7137 12.554 26.8942 12.7898 27.0747 13.0845C27.556 13.7917 27.917 14.6169 28.1577 15.442C28.0373 15.5599 27.8568 15.6778 27.6763 15.7957C24.3672 18.5069 19.7946 19.9214 15.2822 19.9214C10.4689 19.9214 5.77593 18.389 2.58714 15.3242C2.6473 15.0884 2.76763 14.7348 2.94813 14.4401ZM24.6079 24.4008C22.2614 26.2279 18.9523 27.3477 15.3423 27.3477C11.6722 27.3477 8.42324 26.2279 6.0166 24.4008C3.73029 22.6326 2.34647 20.275 2.28631 17.6228C5.77593 20.3929 10.529 21.8075 15.2822 21.8075C19.9751 21.8075 24.7884 20.4519 28.3983 17.6817C28.278 20.334 26.8942 22.6916 24.6079 24.4008Z" fill="#005481"/>
<path fill-rule="evenodd" clip-rule="evenodd" d="M6.55843 3.30078C5.11445 3.30078 3.91113 4.36169 3.91113 5.71728C3.91113 7.07288 5.11445 8.13379 6.55843 8.13379C8.00242 8.13379 9.20574 7.07288 9.20574 5.71728C9.14557 4.36169 8.00242 3.30078 6.55843 3.30078ZM7.76175 6.71925C7.22026 6.71925 6.7991 6.30668 6.7991 5.83516C6.7991 5.36365 7.22026 4.95108 7.76175 4.95108C8.30325 4.95108 8.72441 5.30471 8.72441 5.83516C8.72441 6.30668 8.30325 6.71925 7.76175 6.71925Z" fill="#005481"/>
<path fill-rule="evenodd" clip-rule="evenodd" d="M24.1265 3.24121C22.6224 3.24121 21.4792 4.30211 21.4792 5.65771C21.4792 7.01331 22.6826 8.07422 24.1265 8.07422C25.5705 8.07422 26.7739 7.01331 26.7739 5.65771C26.7739 4.36105 25.5705 3.24121 24.1265 3.24121ZM25.39 6.65968C24.8485 6.65968 24.4274 6.30604 24.4274 5.77559C24.4274 5.30408 24.8485 4.89151 25.39 4.89151C25.9315 4.89151 26.3527 5.24514 26.3527 5.77559C26.3527 6.30604 25.8714 6.65968 25.39 6.65968Z" fill="#005481"/>
<path d="M113.654 19.2141C113.894 19.8625 114.135 20.5108 114.496 21.3359L117.926 12.0825L118.106 11.7289H118.527H119.911H120.753L120.453 12.4951L115.218 26.2868C114.677 27.7603 113.955 28.6444 113.233 29.2338C112.45 29.8821 111.668 30.0589 110.886 30.0589C110.525 30.0589 110.104 30 109.803 29.8821C109.743 29.8821 109.623 29.8232 109.623 29.8232C109.563 29.7642 109.502 29.7642 109.442 29.7642V29.7053L109.081 29.5874V29.1748V27.9961V27.112L109.924 27.5245C109.984 27.5835 110.104 27.5835 110.224 27.6424C110.224 27.6424 110.224 27.6424 110.285 27.6424C110.465 27.7014 110.585 27.7014 110.706 27.7014C111.909 27.7014 112.45 26.4636 112.992 25.2259C113.112 24.9902 113.172 24.7544 113.233 24.5186L108.48 12.4361L108.179 11.6699H109.021H110.405H110.826L111.007 12.0236C111.789 14.2632 112.751 16.7387 113.654 19.2141Z" fill="#005481"/>
<path d="M107.577 12.0826V13.3203V13.8507H107.035C106.073 13.9097 105.23 14.0275 104.448 14.1454C103.907 14.2633 103.365 14.3812 102.944 14.4991V24.6366V25.167H102.402H101.079H100.537V24.6366V13.2613V12.9077L100.898 12.7309C101.44 12.4951 102.824 11.9647 104.629 11.67C104.99 11.611 105.351 11.611 105.712 11.5521C106.133 11.4932 106.554 11.4932 106.915 11.4932C106.975 11.4932 106.975 11.4932 107.035 11.4932H107.577V12.0826Z" fill="#005481"/>
<path d="M76.2904 11.9055C77.1929 11.6697 78.2157 11.4339 79.3589 11.4339C80.9232 11.4339 82.307 11.9055 83.2095 12.7306C84.112 13.6147 84.5933 14.8524 84.5933 16.5027V24.5184V25.0489H84.0518H82.7282H82.1867V24.5184V16.5616C82.1867 15.7954 82.0062 15.0882 81.6452 14.6167C81.224 14.1451 80.502 13.8504 79.3589 13.8504C78.5767 13.8504 77.7946 13.9683 77.1328 14.1451C76.6514 14.263 76.2303 14.3809 75.9294 14.5577C75.9896 14.7345 76.0498 14.9703 76.1099 15.206C76.1701 15.6186 76.2303 16.0901 76.2303 16.5616V24.5774V25.1078H75.6888H74.4253H73.8236V24.5774V16.5616C73.8236 15.7954 73.7033 15.0882 73.2821 14.6167C72.861 14.1451 72.0788 13.8504 70.9357 13.8504C70.0332 13.8504 69.1307 14.0273 68.3485 14.263C68.168 14.322 68.0477 14.3809 67.8672 14.4398C67.8672 14.4398 67.807 14.4398 67.807 14.4988V24.6363V25.1667H67.2054H65.9419H65.4004V24.6363V13.32V12.9664L65.7012 12.7895C66.1825 12.5538 66.9045 12.2001 67.8672 11.9055C68.7697 11.6108 69.8527 11.375 71.1162 11.375C72.3195 11.375 73.3423 11.6108 74.1245 12.1412C74.305 12.2591 74.4855 12.377 74.6058 12.4948C74.666 12.5538 74.666 12.5538 74.666 12.5538C74.9668 12.377 75.5684 12.1412 76.2904 11.9055Z" fill="#005481"/>
<path d="M61.7909 25.167H60.5274H59.9258V24.5776V12.2593V11.6699H60.5274H61.7909H62.3926V12.2593V24.5776V25.167H61.7909Z" fill="#005481"/>
<path d="M61.8506 10.5498H60.4668H59.8651V9.96045V8.13334V7.54395H60.4668H61.8506H62.4523V8.13334V9.96045V10.5498H61.8506Z" fill="#005481"/>
<path d="M58.4209 12.0826V13.3203V13.8507H57.8794C56.9167 13.9097 56.0744 14.0275 55.2922 14.1454C54.7507 14.2633 54.2093 14.3812 53.7881 14.4991V24.6366V25.167H53.1864H51.9229H51.3213V24.6366V13.2613V12.9077L51.6823 12.7309C52.2238 12.4951 53.6076 11.9647 55.4126 11.67C55.7736 11.611 56.1346 11.611 56.4956 11.5521C56.9167 11.4932 57.2777 11.4932 57.6989 11.4932C57.759 11.4932 57.759 11.4932 57.759 11.4932H58.3607V12.0826H58.4209Z" fill="#005481"/>
<path d="M43.3192 7.66211C45.3046 7.72105 46.8088 8.19256 47.8918 9.13559C48.9748 10.0786 49.5764 11.4932 49.5764 13.2024C49.5764 14.9706 48.9748 16.3851 47.8918 17.2692C46.8088 18.2122 45.2445 18.6837 43.3793 18.6837V16.3851C44.8835 16.3262 45.786 15.9725 46.3876 15.4421C46.9291 14.9116 47.1698 14.0865 47.1698 13.2024C47.1698 12.3772 46.9893 11.5521 46.3876 11.0216C45.8461 10.4912 44.8835 10.0786 43.3793 10.0786V7.66211H43.3192ZM37.1221 24.5776V8.2515V7.66211H37.6636H43.3192V10.0197C43.259 10.0197 43.1988 10.0197 43.1387 10.0197H39.5889V16.3851H43.1387C43.1988 16.3851 43.259 16.3851 43.3192 16.3851V18.6837H39.5889V24.5776V25.1081H38.9872H37.7237H37.1822V24.5776H37.1221Z" fill="#005481"/>
<path d="M37.1221 24.5776V8.2515V7.66211H37.6636H43.3192C45.3046 7.66211 46.8088 8.19256 47.8918 9.13559C48.9748 10.0786 49.5764 11.4932 49.5764 13.2024C49.5764 14.9706 48.9748 16.3851 47.8918 17.2692C46.8088 18.2122 45.2445 18.6837 43.3192 18.6837H39.5889V24.5776V25.1081H38.9872H37.7237H37.1822V24.5776H37.1221ZM46.3876 11.0216C45.8461 10.4322 44.8233 10.0786 43.1387 10.0786H39.5889V16.444H43.1387C44.703 16.444 45.7258 16.0904 46.3275 15.501C46.869 14.9706 47.1096 14.1454 47.1096 13.2613C47.1096 12.3772 46.9291 11.5521 46.3876 11.0216Z" fill="#005481"/>
<path d="M92.3554 11.4932C94.2807 11.5521 95.7247 12.0236 96.6272 12.9666C97.65 13.9097 98.1314 15.3831 98.1314 17.2103V20.9824C98.1314 22.9273 97.1085 24.0472 95.845 24.6366C94.6417 25.226 93.3181 25.3439 92.4757 25.3439H92.4156H92.3554V23.1042C92.4156 23.1042 92.4156 23.1042 92.4156 23.1042H92.4757C93.1376 23.1042 93.9799 22.9863 94.7019 22.6327C95.2434 22.338 95.6645 21.8664 95.6645 20.9824V18.8016C95.1231 18.7427 94.2807 18.6248 93.1376 18.6248H93.0774C92.8367 18.6248 92.5961 18.6248 92.3554 18.6837V16.3851C92.7164 16.3262 93.0172 16.3262 93.2579 16.3262C94.3409 16.3262 95.1231 16.3851 95.6645 16.503C95.5442 15.6778 95.3035 15.0884 94.8824 14.6759C94.3409 14.1454 93.5587 13.9097 92.4156 13.8507V11.4932H92.3554ZM92.1148 11.4932C92.1749 11.4932 92.2952 11.4932 92.2952 11.4932V13.8507C92.2351 13.8507 92.1148 13.8507 92.0546 13.8507C91.2724 13.8507 90.5504 13.9097 89.9488 14.0275C89.4073 14.1454 88.926 14.2633 88.6251 14.3812L87.843 14.6169V13.8507V12.613V12.2004L88.2641 12.0236C88.6251 11.9057 89.1666 11.7879 89.6479 11.67C89.8284 11.67 89.8886 11.611 89.9488 11.611C90.6708 11.5521 91.3928 11.4932 92.1148 11.4932ZM92.3554 25.3439C91.4529 25.3439 90.1293 25.167 88.9861 24.5776C87.7226 23.9293 86.6396 22.8684 86.6396 20.9234C86.6396 18.6837 88.0235 17.5639 89.5878 16.9745C90.5504 16.6209 91.5733 16.444 92.3554 16.444V18.7427C91.7538 18.8016 91.0318 18.9195 90.4301 19.1552C89.6479 19.4499 89.0463 20.0393 89.0463 20.9234V20.9824C89.0463 21.8664 89.5276 22.338 90.1293 22.6327C90.7911 22.9863 91.6334 23.0452 92.3554 23.1042V25.3439Z" fill="#005481"/>
<path d="M92.1144 11.4932C94.0999 11.4932 95.604 12.0236 96.5667 12.9666C97.5895 13.9097 98.0708 15.3831 98.0708 17.2103V20.9824C98.0708 22.9273 97.048 24.0472 95.7845 24.6366C94.5812 25.226 93.2575 25.3439 92.4152 25.3439H92.355C91.4525 25.3439 90.0687 25.167 88.9256 24.5776C87.6621 23.9293 86.5791 22.8684 86.5791 20.9234C86.5791 18.6837 87.9629 17.5639 89.5272 16.9745C90.9712 16.444 92.5355 16.3851 93.1974 16.3851C94.2803 16.3851 95.0625 16.444 95.604 16.5619C95.4837 15.7368 95.243 15.1474 94.8218 14.7348C94.2804 14.2044 93.3177 13.9097 92.1144 13.9097C91.3322 13.9097 90.6102 13.9686 90.0086 14.0865C89.4671 14.2044 88.9857 14.3222 88.6849 14.4401L87.9028 14.6759V13.9097V12.6719V12.2594L88.3239 12.0826C88.6849 11.9647 89.2264 11.8468 89.7077 11.7289C89.8882 11.7289 89.9484 11.67 90.0086 11.67C90.6704 11.5521 91.3924 11.4932 92.1144 11.4932ZM95.604 20.9824V18.8016C95.0625 18.7427 94.2202 18.6248 93.077 18.6248H93.0169C92.2347 18.6248 91.2119 18.6837 90.3696 19.0963C89.5874 19.391 88.9857 19.9804 88.9857 20.8645V20.9234C88.9857 21.8075 89.4671 22.279 90.0687 22.5737C90.7306 22.9273 91.633 23.0452 92.355 23.0452H92.4152C93.077 23.0452 93.9194 22.9273 94.6413 22.5737C95.1828 22.338 95.604 21.8664 95.604 20.9824Z" fill="#005481"/>
<path d="M125.205 8.31009V22.868H133.327H133.929V23.3985V24.6362V25.2256H133.327H123.34H122.738V24.6362V8.31009V7.7207H123.34H124.603H125.205V8.31009Z" fill="#005481"/>
<path d="M140.849 11.5527C143.857 11.5527 145.361 13.0852 146.143 14.8533C146.865 16.4447 146.926 18.1539 146.926 18.5665C146.926 18.9791 146.865 19.1559 146.865 19.2148V19.7453C144.88 19.7453 142.834 19.7453 140.789 19.7453V17.5645H144.338C144.278 17.093 144.158 16.3857 143.857 15.7374C143.376 14.7944 142.533 13.9103 140.849 13.9103C140.789 13.9103 140.789 13.9103 140.789 13.9103V11.5527C140.849 11.5527 140.849 11.5527 140.849 11.5527ZM140.789 23.0459C142.774 23.2227 145.06 22.6922 146.023 21.8671V22.7512V24.0478V24.4015L145.662 24.5783C145.121 24.814 144.519 24.9908 143.917 25.1087C143.797 25.1677 143.677 25.1677 143.556 25.1677C142.774 25.3445 141.992 25.3445 141.27 25.3445C141.09 25.3445 140.969 25.3445 140.789 25.3445V23.0459ZM140.789 19.7453C139.585 19.7453 138.442 19.7453 137.239 19.8042C137.179 20.983 138.141 22.4565 139.164 22.7512C139.646 22.928 140.247 22.9869 140.789 23.0459V25.4034C139.405 25.3445 137.961 24.9908 136.818 24.0478C135.554 23.0459 134.712 21.3956 134.712 18.7433C134.712 17.6824 134.892 15.9732 135.675 14.4407C136.577 12.9083 138.081 11.6117 140.789 11.5527V13.9103C139.104 13.9103 138.081 14.6765 137.54 16.091C137.419 16.3857 137.359 16.6804 137.299 17.0341C137.299 17.2109 137.239 17.3877 137.239 17.5645H140.789V19.7453Z" fill="#005481"/>
<path d="M140.849 11.5527C143.858 11.5527 145.362 13.0852 146.144 14.8533C146.866 16.4447 146.926 18.1539 146.926 18.5665C146.926 18.9791 146.866 19.1559 146.866 19.2148V19.7453C143.677 19.7453 140.488 19.7453 137.239 19.8042C137.179 20.983 138.142 22.4565 139.165 22.7512C141.331 23.4584 144.76 22.9869 146.023 21.8671V22.7512V24.0478V24.4015L145.663 24.5783C145.121 24.814 144.519 24.9908 143.918 25.1087C143.797 25.1677 143.677 25.1677 143.557 25.1677C142.775 25.3445 141.992 25.3445 141.27 25.3445C139.706 25.3445 138.142 25.0498 136.878 23.9889C135.615 22.9869 134.772 21.3366 134.772 18.6844C134.772 17.6235 134.953 15.9142 135.735 14.3818C136.577 12.8494 138.142 11.5527 140.849 11.5527ZM140.849 13.9103C139.165 13.9103 138.082 14.6765 137.6 16.091C137.48 16.3857 137.42 16.6804 137.36 17.0341C137.36 17.2109 137.299 17.3877 137.299 17.5645H144.459C144.399 17.093 144.279 16.3857 143.978 15.7374C143.376 14.7944 142.534 13.9103 140.849 13.9103Z" fill="#005481"/>
<path d="M154.085 11.5518C156.01 11.6107 157.454 12.0822 158.357 13.0252C159.319 14.0272 159.801 15.4417 159.801 17.2688V21.041C159.801 22.9859 158.838 24.1058 157.575 24.6952C156.371 25.2256 155.048 25.3435 154.145 25.3435C154.085 25.3435 154.085 25.3435 154.085 25.3435V23.1038C154.145 23.1038 154.145 23.1038 154.145 23.1038C154.867 23.1038 155.71 22.9859 156.371 22.6912C156.913 22.3966 157.334 21.8661 157.334 21.041V18.9191C156.792 18.8602 155.95 18.7423 154.747 18.7423H154.687C154.506 18.7423 154.266 18.8013 154.025 18.8013V16.5026C154.386 16.4437 154.687 16.4437 154.927 16.4437C156.01 16.4437 156.732 16.5026 157.334 16.6205C157.214 15.8543 156.973 15.206 156.552 14.7934C156.01 14.3219 155.228 14.0272 154.085 14.0272V11.5518ZM153.905 11.5518C153.965 11.5518 154.025 11.5518 154.085 11.5518V13.9683C154.025 13.9093 153.905 13.9093 153.844 13.9093C153.062 13.9093 152.34 14.0272 151.739 14.1451C151.197 14.263 150.656 14.3808 150.415 14.4987L149.633 14.7345V13.9683V12.7305V12.318L150.054 12.2001C150.415 12.0233 150.956 11.9643 151.438 11.8465C151.558 11.7875 151.678 11.7875 151.739 11.7875C152.4 11.6107 153.122 11.5518 153.905 11.5518ZM154.085 25.3435C153.183 25.3435 151.859 25.1667 150.656 24.6362C149.392 23.9879 148.369 22.8681 148.369 20.982C148.369 18.7423 149.753 17.6225 151.317 17.0331C152.28 16.6795 153.363 16.5026 154.145 16.5026V18.8013C153.544 18.8602 152.822 18.9781 152.22 19.2138C151.438 19.5675 150.836 20.0979 150.836 21.041C150.836 21.925 151.317 22.3966 151.919 22.6912C152.581 23.0449 153.483 23.1628 154.145 23.1628V25.3435H154.085Z" fill="#005481"/>
<path d="M153.905 11.5518C155.89 11.5518 157.394 12.0822 158.357 13.0252C159.319 14.0272 159.801 15.4417 159.801 17.2688V21.041C159.801 22.9859 158.838 24.1058 157.575 24.6952C156.371 25.2256 155.048 25.3435 154.145 25.3435C153.243 25.3435 151.859 25.2256 150.656 24.6362C149.392 23.9879 148.369 22.8681 148.369 20.982C148.369 18.7423 149.753 17.6225 151.317 17.0331C152.822 16.5026 154.386 16.4437 154.988 16.4437C156.071 16.4437 156.792 16.5026 157.394 16.6205C157.274 15.8543 157.033 15.206 156.612 14.7934C156.07 14.263 155.108 13.9683 153.905 13.9683C153.122 13.9683 152.4 14.0861 151.799 14.204C151.257 14.3219 150.716 14.4398 150.475 14.5577L149.693 14.7934V14.0272V12.7895V12.3769L150.114 12.259C150.475 12.0822 151.017 12.0233 151.498 11.9054C151.618 11.8465 151.739 11.8465 151.799 11.8465C152.4 11.6107 153.122 11.5518 153.905 11.5518ZM157.394 21.041V18.9191C156.853 18.8602 156.01 18.7423 154.807 18.7423H154.747C154.025 18.7423 152.942 18.8602 152.1 19.2138C151.317 19.5675 150.716 20.0979 150.716 21.041C150.716 21.925 151.197 22.3966 151.799 22.6912C152.521 23.0449 153.423 23.1628 154.085 23.1628C154.807 23.1628 155.649 23.0449 156.311 22.7502C156.973 22.3966 157.394 21.8661 157.394 21.041Z" fill="#005481"/>
<path d="M168.104 11.5518C169.187 11.6107 170.631 11.8465 171.774 12.7895C173.038 13.7914 174 15.5596 174 18.5655C174 21.3356 173.158 23.0449 171.895 24.0468C170.812 24.9899 169.428 25.2846 168.104 25.4024V23.0449C169.127 22.9859 169.909 22.6912 170.511 22.1019C171.173 21.4535 171.534 20.2747 171.534 18.5066C171.534 16.3258 170.992 15.147 170.27 14.5577C169.668 14.0272 168.886 13.8504 168.164 13.7914V11.5518H168.104ZM167.803 11.5518C167.924 11.5518 167.984 11.5518 168.104 11.5518V13.8504C167.984 13.8504 167.924 13.8504 167.863 13.8504C166.6 13.8504 165.758 14.0861 165.336 14.4987C164.855 14.8523 164.675 15.3828 164.675 15.8543V22.5734C164.976 22.6912 165.336 22.7502 165.637 22.8091C165.758 22.8681 165.818 22.8681 165.938 22.8681C166.48 22.9859 167.081 23.0449 167.683 23.0449C167.863 23.0449 167.984 23.0449 168.164 23.0449V25.4024C167.984 25.4024 167.863 25.4024 167.683 25.4024C166.72 25.4024 165.758 25.2846 164.915 25.0488C164.855 24.9899 164.735 24.9899 164.675 24.9899V29.2924V29.8229H164.133H162.87H162.328V29.2924V15.9133C162.328 15.3828 162.449 14.263 163.231 13.261C163.953 12.3769 165.336 11.5518 167.803 11.5518Z" fill="#005481"/>
<path d="M167.803 11.5518C169.006 11.5518 170.51 11.7875 171.774 12.7895C173.037 13.7914 174 15.5596 174 18.5655C174 21.3356 173.158 23.0449 171.894 24.0468C170.691 25.1077 169.127 25.4024 167.622 25.4024C166.66 25.4024 165.697 25.2846 164.855 25.0488C164.795 24.9899 164.674 24.9899 164.614 24.9899V29.2924V29.8229H164.073H162.809H162.268V29.2924V15.9133C162.268 15.3828 162.388 14.263 163.17 13.261C163.952 12.3769 165.336 11.5518 167.803 11.5518ZM167.683 23.0449C168.886 23.0449 169.909 22.8091 170.51 22.1019C171.172 21.4535 171.533 20.2747 171.533 18.5066C171.533 16.3258 170.992 15.147 170.27 14.5577C169.608 13.9093 168.645 13.7914 167.863 13.7914C166.6 13.7914 165.757 14.0272 165.336 14.4398C164.855 14.7934 164.674 15.3239 164.674 15.7954V22.5144C164.975 22.6323 165.336 22.6912 165.637 22.7502C165.757 22.8091 165.817 22.8091 165.938 22.8091C166.419 23.0449 167.021 23.0449 167.683 23.0449Z" fill="#005481"/>
</g>
<defs>
<clipPath id="clip0_3466_12312">
<rect width="174" height="30" fill="white"/>
</clipPath>
</defs>
</svg>
