<svg width="166" height="54" viewBox="0 0 166 54" fill="none" xmlns="http://www.w3.org/2000/svg">
<g clip-path="url(#clip0_195_259)">
<mask id="mask0_195_259" style="mask-type:luminance" maskUnits="userSpaceOnUse" x="0" y="18" width="68" height="3">
<path d="M66.3818 18.386L0 19.4304L66.3818 20.4748H66.4163C67.0128 20.4657 67.4868 19.9907 67.4774 19.4152C67.468 18.8427 66.9877 18.386 66.4006 18.386C66.3943 18.386 66.3881 18.386 66.3818 18.386Z" fill="white"/>
</mask>
<g mask="url(#mask0_195_259)">
<path d="M67.4868 18.386H0V20.4748H67.4868V18.386Z" fill="black"/>
</g>
<path d="M99.6182 18.386L166 19.4304L99.6182 20.4748H99.5837C98.9872 20.4657 98.5132 19.9907 98.5226 19.4152C98.532 18.8427 99.0123 18.386 99.5994 18.386C99.6057 18.386 99.612 18.386 99.6182 18.386Z" fill="black"/>
<mask id="mask1_195_259" style="mask-type:luminance" maskUnits="userSpaceOnUse" x="98" y="18" width="68" height="3">
<path d="M99.6182 18.386L166 19.4304L99.6182 20.4748H99.5837C98.9872 20.4657 98.5132 19.9907 98.5226 19.4152C98.532 18.8427 99.0123 18.386 99.5994 18.386C99.6057 18.386 99.612 18.386 99.6182 18.386Z" fill="white"/>
</mask>
<g mask="url(#mask1_195_259)">
<path d="M166 18.386H98.5127V20.4748H166V18.386Z" fill="black"/>
</g>
<path d="M33.7384 49.9862C33.7384 51.9166 32.109 53.5 30.1155 53.5H22.8699C20.8764 53.5 19.2471 51.9166 19.2471 49.9862V32.4169C19.2471 30.4834 20.8764 28.9031 22.8699 28.9031H30.1155C32.109 28.9031 33.7384 30.4834 33.7384 32.4169V36.8108H28.3041V34.1769H24.6813V48.2323H28.3041V45.5954H33.7384V49.9892V49.9862Z" fill="black"/>
<path d="M52.9014 49.9862C52.9014 51.9166 51.2721 53.5 49.2786 53.5H42.033C40.0395 53.5 38.4102 51.9166 38.4102 49.9862V32.4169C38.4102 30.4834 40.0395 28.9031 42.033 28.9031H49.2786C51.2721 28.9031 52.9014 30.4834 52.9014 32.4169V49.9862ZM47.4672 48.2292V34.1738H43.8444V48.2292H47.4672Z" fill="black"/>
<path d="M72.0294 49.9862C72.0294 51.9166 70.4 53.5 68.4066 53.5H61.1609C59.1329 53.5 57.5381 51.9166 57.5381 49.9862V28.9031H62.9723V48.2292H66.5951V28.9031H72.0294V49.9862Z" fill="black"/>
<path d="M91.1612 53.5H86.1602L82.1042 40.9214V53.5H76.6699V28.9031H82.393L85.727 39.8648V28.9031H91.1612V53.5Z" fill="black"/>
<path d="M109.382 34.1738H104.855V53.5H99.4205V34.1738H94.8936V28.9031H109.385V34.1738H109.382Z" fill="black"/>
<path d="M124.777 44.4717L127.603 53.5029H121.952L119.56 44.5417H118.546V53.5029H113.111V28.906H123.98C125.973 28.906 127.603 30.4863 127.603 32.4199V41.0279C127.603 42.7148 126.372 44.1185 124.777 44.4717ZM122.168 39.2709V34.1768H118.546V39.2709H122.168Z" fill="black"/>
<path d="M147.13 28.9031L141.661 44.012V53.5H136.227V44.012L130.83 28.9031H136.625L138.98 37.5111L141.334 28.9031H147.13Z" fill="black"/>
<path d="M40.4443 0.734375L41.5902 8.164H41.6184L42.8365 0.734375H44.8394L46.0575 8.164H46.0858L47.2316 0.734375H49.2345L47.3478 10.7826H45.0121L43.8505 3.49308H43.8223L42.6607 10.7826H40.325L38.4414 0.734375H40.4443Z" fill="black"/>
<path d="M53.4004 0.734375H55.4881V10.7826H53.4004V0.734375Z" fill="black"/>
<path d="M63.6284 0.734375C64.3536 0.734375 64.9375 0.850082 65.3833 1.07845C65.8291 1.30987 66.1744 1.63567 66.4193 2.06501C66.6673 2.4913 66.8337 3.00589 66.9184 3.60574C67.0063 4.20559 67.0503 4.87852 67.0503 5.61844C67.0503 6.50147 66.9938 7.26879 66.8839 7.9204C66.774 8.57202 66.5825 9.11097 66.3094 9.53117C66.0394 9.95442 65.6752 10.268 65.22 10.4751C64.7648 10.6822 64.1903 10.7857 63.4934 10.7857H60.2002V0.734375H63.6252H63.6284ZM63.2234 9.29062C63.5907 9.29062 63.8858 9.22972 64.1087 9.10793C64.3316 8.98613 64.5074 8.78516 64.6393 8.50198C64.7711 8.22185 64.8559 7.85037 64.8998 7.39059C64.9438 6.9308 64.9657 6.35836 64.9657 5.67325C64.9657 5.1008 64.9469 4.59839 64.9092 4.16601C64.8716 3.73363 64.7899 3.37433 64.6706 3.0881C64.5482 2.80188 64.3693 2.58569 64.1338 2.43953C63.8952 2.29338 63.5813 2.2203 63.1826 2.2203H62.2973V9.28453H63.2265L63.2234 9.29062Z" fill="black"/>
<path d="M77.2851 2.39691H73.5838V4.75977H77.0653V6.41925H73.5838V9.1201H77.4295V10.7796H71.4961V0.734375H77.2851V2.39386V2.39691Z" fill="black"/>
<path d="M88.8345 3.61801C88.9067 2.97553 89.0668 2.42439 89.3148 1.96461C89.5628 1.50483 89.9176 1.14552 90.3822 0.886706C90.8468 0.627887 91.4715 0.5 92.2532 0.5C93.0349 0.5 93.6597 0.627887 94.1243 0.886706C94.5889 1.14552 94.9437 1.50483 95.1917 1.96461C95.4397 2.42439 95.5967 2.97553 95.672 3.61801C95.7442 4.26048 95.7819 4.96082 95.7819 5.72205C95.7819 6.48328 95.7474 7.19579 95.672 7.83218C95.5998 8.47162 95.4397 9.01971 95.1917 9.47949C94.9437 9.93927 94.5889 10.2925 94.1243 10.5361C93.6597 10.7797 93.0349 10.9015 92.2532 10.9015C91.4715 10.9015 90.8468 10.7797 90.3822 10.5361C89.9176 10.2925 89.5628 9.93927 89.3148 9.47949C89.0668 9.01971 88.9098 8.47162 88.8345 7.83218C88.7623 7.19275 88.7246 6.48937 88.7246 5.72205C88.7246 4.95473 88.7623 4.26048 88.8345 3.61801ZM90.8657 7.44548C90.9002 7.92049 90.9661 8.30415 91.0697 8.59951C91.1702 8.89486 91.3177 9.11105 91.5061 9.24808C91.6945 9.3851 91.9425 9.45209 92.2532 9.45209C92.564 9.45209 92.8121 9.3851 93.0004 9.24808C93.1888 9.11105 93.3332 8.89486 93.4368 8.59951C93.5373 8.30415 93.6063 7.92049 93.6409 7.44548C93.6754 6.97047 93.6911 6.39802 93.6911 5.72205C93.6911 5.04608 93.6754 4.47363 93.6409 4.00471C93.6063 3.53579 93.5404 3.15213 93.4368 2.85068C93.3363 2.54924 93.1888 2.33305 93.0004 2.19602C92.8121 2.059 92.564 1.99201 92.2532 1.99201C91.9425 1.99201 91.6945 2.059 91.5061 2.19602C91.3177 2.33305 91.1733 2.54924 91.0697 2.85068C90.9693 3.15213 90.9002 3.53579 90.8657 4.00471C90.8311 4.47363 90.8154 5.04608 90.8154 5.72205C90.8154 6.39802 90.8311 6.97351 90.8657 7.44548Z" fill="black"/>
<path d="M103.84 0.697998C104.371 0.697998 104.82 0.786301 105.181 0.956817C105.545 1.13038 105.837 1.35875 106.06 1.63888C106.283 1.91901 106.443 2.24178 106.537 2.60412C106.634 2.96647 106.681 3.3349 106.681 3.70943C106.681 4.22402 106.603 4.67467 106.443 5.06138C106.283 5.44504 106.06 5.76171 105.774 6.00531C105.488 6.2489 105.143 6.4316 104.738 6.55339C104.333 6.67519 103.881 6.73609 103.388 6.73609H102.271V10.7463H100.18V0.697998H103.837H103.84ZM103.203 5.24407C103.617 5.24407 103.953 5.12228 104.211 4.87868C104.468 4.63509 104.594 4.25447 104.594 3.73988C104.594 3.22529 104.484 2.84772 104.261 2.58585C104.038 2.32399 103.664 2.19306 103.143 2.19306H102.274V5.24712H103.203V5.24407Z" fill="black"/>
<path d="M116.678 2.35748H112.976V4.72035H116.458V6.37983H112.976V9.08068H116.822V10.7402H110.889V0.697998H116.678V2.35748Z" fill="black"/>
<path d="M125.992 7.57953H126.02V0.697998H127.935V10.7463H125.555L123.003 3.70943H122.975V10.7463H121.06V0.697998H123.467L125.992 7.57953Z" fill="black"/>
<path d="M83.1901 10.6609L85.0832 16.2514L91.1516 16.2696L86.2542 19.747L88.1127 25.3496L83.1901 21.9058L78.2676 25.3496L80.123 19.747L75.2256 16.2696L81.294 16.2514L83.1901 10.6609Z" fill="#FFC629"/>
<path d="M83.1895 10.6609V19.7195L85.0825 16.2514L83.1895 10.6609Z" fill="url(#paint0_linear_195_259)"/>
<path d="M83.1895 19.7197L91.1509 16.2698L86.2535 19.7471L83.1895 19.7197Z" fill="url(#paint1_linear_195_259)"/>
<path d="M83.2087 19.7197L75.2441 16.2698L80.1415 19.7471L83.2087 19.7197Z" fill="url(#paint2_linear_195_259)"/>
<path d="M83.2089 19.7195L78.2676 25.3496L83.1901 21.9057L88.1126 25.3496L83.2089 19.7195Z" fill="url(#paint3_linear_195_259)"/>
</g>
<defs>
<linearGradient id="paint0_linear_195_259" x1="83.1895" y1="15.1887" x2="85.0825" y2="15.1887" gradientUnits="userSpaceOnUse">
<stop stop-color="#EBA900"/>
<stop offset="0.05" stop-color="#E09C01"/>
<stop offset="0.22" stop-color="#C57D04"/>
<stop offset="0.39" stop-color="#B06506"/>
<stop offset="0.57" stop-color="#A15308"/>
<stop offset="0.77" stop-color="#984909"/>
<stop offset="1" stop-color="#96460A"/>
</linearGradient>
<linearGradient id="paint1_linear_195_259" x1="83.1895" y1="18.0084" x2="91.1509" y2="18.0084" gradientUnits="userSpaceOnUse">
<stop stop-color="#EBA900"/>
<stop offset="0.17" stop-color="#D28C02"/>
<stop offset="0.39" stop-color="#B86D05"/>
<stop offset="0.61" stop-color="#A55708"/>
<stop offset="0.81" stop-color="#994A09"/>
<stop offset="1" stop-color="#96460A"/>
</linearGradient>
<linearGradient id="paint2_linear_195_259" x1="75.2441" y1="18.0084" x2="83.2087" y2="18.0084" gradientUnits="userSpaceOnUse">
<stop stop-color="#EBA900"/>
<stop offset="0.19" stop-color="#CD8703"/>
<stop offset="0.4" stop-color="#B56A06"/>
<stop offset="0.6" stop-color="#A45608"/>
<stop offset="0.8" stop-color="#994A09"/>
<stop offset="1" stop-color="#96460A"/>
</linearGradient>
<linearGradient id="paint3_linear_195_259" x1="78.2676" y1="22.533" x2="88.1126" y2="22.533" gradientUnits="userSpaceOnUse">
<stop stop-color="#EBA900"/>
<stop offset="0.02" stop-color="#E7A400"/>
<stop offset="0.21" stop-color="#CA8203"/>
<stop offset="0.4" stop-color="#B36806"/>
<stop offset="0.59" stop-color="#A25508"/>
<stop offset="0.79" stop-color="#994909"/>
<stop offset="1" stop-color="#96460A"/>
</linearGradient>
<clipPath id="clip0_195_259">
<rect width="166" height="53" fill="white" transform="translate(0 0.5)"/>
</clipPath>
</defs>
</svg>
